# Blender 3.3.1
# www.blender.org
mtllib Creeper.mtl
o Creeper_Cube.002
v -0.000357 -0.992444 0.496222
v -0.000357 -0.496222 0.496222
v -0.000357 -0.992444 0.165407
v -0.000357 -0.496222 0.165407
v 0.330815 -0.992444 0.496222
v 0.330815 -0.496222 0.496222
v 0.330815 -0.992444 0.165407
v 0.330815 -0.496222 0.165407
v 0.330815 1.157851 -0.330815
v 0.330815 0.496222 -0.330815
v 0.330815 1.157851 0.330815
v 0.330815 0.496222 0.330815
v -0.330815 1.157851 -0.330815
v -0.330815 0.496222 -0.330815
v -0.330815 1.157851 0.330815
v -0.330815 0.496222 0.330815
v -0.330815 -0.496222 0.165407
v -0.330815 0.496222 0.165407
v -0.330815 -0.496222 -0.165407
v -0.330815 0.496222 -0.165407
v 0.330815 -0.496222 0.165407
v 0.330815 0.496222 0.165407
v 0.330815 -0.496222 -0.165407
v 0.330815 0.496222 -0.165407
v -0.330815 -0.992444 -0.165407
v -0.330815 -0.496222 -0.165407
v -0.330815 -0.992444 -0.496222
v -0.330815 -0.496222 -0.496222
v 0.000000 -0.992444 -0.165407
v 0.000000 -0.496222 -0.165407
v 0.000000 -0.992444 -0.496222
v 0.000000 -0.496222 -0.496222
v 0.000000 -0.992444 -0.165407
v 0.000000 -0.496222 -0.165407
v 0.000000 -0.992444 -0.496222
v 0.000000 -0.496222 -0.496222
v 0.330815 -0.992444 -0.165407
v 0.330815 -0.496222 -0.165407
v 0.330815 -0.992444 -0.496222
v 0.330815 -0.496222 -0.496222
v -0.330815 -0.992444 0.496222
v -0.330815 -0.496222 0.496222
v -0.330815 -0.992444 0.165407
v -0.330815 -0.496222 0.165407
v 0.000000 -0.992444 0.496222
v 0.000000 -0.496222 0.496222
v 0.000000 -0.992444 0.165407
v 0.000000 -0.496222 0.165407
vn -1.0000 -0.0000 -0.0000
vn -0.0000 -0.0000 -1.0000
vn 1.0000 -0.0000 -0.0000
vn -0.0000 -0.0000 1.0000
vn -0.0000 -1.0000 -0.0000
vn -0.0000 1.0000 -0.0000
vt 0.062500 0.187500
vt 0.125000 0.500000
vt 0.062500 0.375000
vt 0.125000 0.500000
vt 0.000000 0.187500
vt 0.250000 0.187500
vt 0.125000 0.375000
vt -0.000000 0.375000
vt 0.250000 0.375000
vt 0.125000 0.375000
vt 0.125000 0.187500
vt 0.187500 0.500000
vt 0.125000 0.375000
vt 0.062500 0.500000
vt 0.187500 0.187500
vt 0.187500 0.375000
vt 0.187500 0.375000
vt 0.062500 0.375000
vt 0.250000 1.000000
vt 0.375000 0.750000
vt 0.250000 1.000000
vt 0.375000 0.500000
vt 0.250000 0.750000
vt 0.250000 0.750000
vt 0.250000 0.500000
vt 0.125000 1.000000
vt 0.000000 0.750000
vt 0.500000 0.750000
vt -0.000000 0.500000
vt 0.375000 1.000000
vt 0.500000 0.500000
vt 0.125000 0.750000
vt 0.125000 0.500000
vt 0.375000 0.750000
vt 0.312500 -0.000000
vt 0.437500 0.375000
vt 0.312500 0.375000
vt 1.000000 1.000000
vt 0.250000 0.000000
vt 0.500000 0.375000
vt 0.437500 0.500000
vt 0.250000 0.375000
vt 0.500000 0.000000
vt 1.000000 0.000000
vt 0.437500 -0.000000
vt 0.562500 0.375000
vt 0.437500 0.375000
vt 0.000000 1.000000
vt 0.625000 0.375000
vt 0.500000 -0.000000
vt 0.562500 0.500000
vt 0.625000 0.000000
vt 0.500000 0.375000
vt 0.000000 0.000000
vt 0.062500 0.187500
vt 0.125000 0.500000
vt 0.062500 0.375000
vt 0.125000 0.500000
vt 0.000000 0.187500
vt 0.250000 0.187500
vt 0.125000 0.375000
vt -0.000000 0.375000
vt 0.250000 0.375000
vt 0.125000 0.375000
vt 0.125000 0.187500
vt 0.187500 0.500000
vt 0.125000 0.375000
vt 0.062500 0.500000
vt 0.187500 0.187500
vt 0.187500 0.375000
vt 0.187500 0.375000
vt 0.062500 0.375000
vt 0.062500 0.187500
vt 0.125000 0.500000
vt 0.062500 0.375000
vt 0.125000 0.500000
vt 0.000000 0.187500
vt 0.250000 0.187500
vt 0.125000 0.375000
vt -0.000000 0.375000
vt 0.250000 0.375000
vt 0.125000 0.375000
vt 0.125000 0.187500
vt 0.187500 0.500000
vt 0.125000 0.375000
vt 0.062500 0.500000
vt 0.187500 0.187500
vt 0.187500 0.375000
vt 0.187500 0.375000
vt 0.062500 0.375000
vt 0.062500 0.187500
vt 0.125000 0.500000
vt 0.062500 0.375000
vt 0.125000 0.500000
vt 0.000000 0.187500
vt 0.250000 0.187500
vt 0.125000 0.375000
vt -0.000000 0.375000
vt 0.250000 0.375000
vt 0.125000 0.375000
vt 0.125000 0.187500
vt 0.187500 0.500000
vt 0.125000 0.375000
vt 0.062500 0.500000
vt 0.187500 0.187500
vt 0.187500 0.375000
vt 0.187500 0.375000
vt 0.062500 0.375000
s 0
usemtl Material.001
f 1/1/1 2/3/1 4/8/1 3/5/1
f 3/6/2 4/9/2 8/17/2 7/15/2
f 7/15/3 8/17/3 6/13/3 5/11/3
f 5/11/4 6/13/4 2/3/4 1/1/4
f 3/7/5 7/16/5 5/12/5 1/2/5
f 8/18/6 4/10/6 2/4/6 6/14/6
f 9/19/6 13/26/6 15/32/6 11/23/6
f 12/25/4 11/23/4 15/32/4 16/33/4
f 16/33/1 15/32/1 13/27/1 14/29/1
f 14/30/5 10/21/5 12/24/5 16/34/5
f 10/22/3 9/20/3 11/23/3 12/25/3
f 14/31/2 13/28/2 9/20/2 10/22/2
f 17/35/1 18/37/1 20/42/1 19/39/1
f 19/40/2 20/43/2 24/52/2 23/49/2
f 23/50/3 24/53/3 22/47/3 21/45/3
f 21/45/4 22/47/4 18/37/4 17/35/4
f 19/41/5 23/51/5 21/46/5 17/36/5
f 24/54/6 20/44/6 18/38/6 22/48/6
f 25/55/1 26/57/1 28/62/1 27/59/1
f 27/60/2 28/63/2 32/71/2 31/69/2
f 31/69/3 32/71/3 30/67/3 29/65/3
f 29/65/4 30/67/4 26/57/4 25/55/4
f 27/61/5 31/70/5 29/66/5 25/56/5
f 32/72/6 28/64/6 26/58/6 30/68/6
f 33/73/1 34/75/1 36/80/1 35/77/1
f 35/78/2 36/81/2 40/89/2 39/87/2
f 39/87/3 40/89/3 38/85/3 37/83/3
f 37/83/4 38/85/4 34/75/4 33/73/4
f 35/79/5 39/88/5 37/84/5 33/74/5
f 40/90/6 36/82/6 34/76/6 38/86/6
f 41/91/1 42/93/1 44/98/1 43/95/1
f 43/96/2 44/99/2 48/107/2 47/105/2
f 47/105/3 48/107/3 46/103/3 45/101/3
f 45/101/4 46/103/4 42/93/4 41/91/4
f 43/97/5 47/106/5 45/102/5 41/92/5
f 48/108/6 44/100/6 42/94/6 46/104/6
